<?xml version="1.0" standalone="no"?><!DOCTYPE svg PUBLIC "-//W3C//DTD SVG 1.1//EN" "http://www.w3.org/Graphics/SVG/1.1/DTD/svg11.dtd"><svg width="128" height="128" viewBox="0 0 128 128" version="1.1" xmlns="http://www.w3.org/2000/svg" xmlns:xlink="http://www.w3.org/1999/xlink"><defs><style type="text/css"><![CDATA[
@font-face { font-family: ifont; src: url("//at.alicdn.com/t/font_1442373896_4754455.eot?#iefix") format("embedded-opentype"), url("//at.alicdn.com/t/font_1442373896_4754455.woff") format("woff"), url("//at.alicdn.com/t/font_1442373896_4754455.ttf") format("truetype"), url("//at.alicdn.com/t/font_1442373896_4754455.svg#ifont") format("svg"); }

]]></style></defs><g class="transform-group"><g transform="scale(0.125, 0.125)"><path d="M465.5 523.8c-2.3-48-16.6-82-29.3-111.9-15-35.6-28-66.4-19.6-117.2C430.2 213 578.1 96.1 770.4 105.8l2.3-45.3C606.4 52.3 395 149.2 372.1 287.2c-10.6 63.8 6.2 103.7 22.5 142.3 12.2 29 23.8 56.5 25.7 96.5 1.7 34.8-93.7 123.5-311.1 211.8l16.9 42C183.8 756.5 470.8 634.2 465.5 523.8zM876.2 625.8c-6.4-86.1-51-169.1-113.6-211.5-112.4-76.1-105.6-110.3-89-138.7 49.5-84.9 179.6-86.2 180.9-86.2l0-45.3c-6.4 0-157.2 1.2-219.9 108.7-47.7 81.7 21.2 144.1 102.7 199.3 51.6 34.9 88.4 104.5 93.8 177.2 4.8 64.7-12 162.7-119.5 261.6l30.5 33.4C863 813 881.7 700.5 876.2 625.8zM439.4 829.4l10.5 44.1c0.7-0.2 17-4.1 39.4-14.5l-18.9-41.2C452.9 825.9 440.3 829.1 439.4 829.4zM444.6 851.4l-5.3-22c0 0-0.1 0-0.1 0L444.6 851.4zM534.5 434.4c12 21.4 24.6 44.3 35 69.4l41.7-17.5c-11.4-27.4-24.7-51.7-37.4-74.2L534.5 434.4zM635.1 568.6l-44.6 7.3c1.4 8.9 2.5 17.9 3.1 26.8 0.5 6.9 0.7 13.6 0.7 20.1 0 9.3-0.5 18.5-1.4 27.4l44.9 4.8c1.1-10.4 1.6-21.2 1.6-32.1 0-7.5-0.3-15.2-0.8-23.1C637.9 589.2 636.7 578.8 635.1 568.6zM532.1 310c0-9.4 2-18.4 6-27.5L496.9 264c-6.6 14.8-9.9 30.3-9.9 46 0 15.6 3.2 31.7 9.7 49.4l42.4-15.7C534.4 331.1 532.1 320.1 532.1 310zM531 777.3l30.8 33.2c22-20.6 39.7-44.5 52.5-71l-40.6-19.7C563.2 741.2 548.9 760.6 531 777.3zM586.8 170.6c-11.7 7.9-22.4 15.9-31.9 23.6l28.5 35.2c8.5-6.9 18.1-14.1 28.7-21.3L586.8 170.6z" fill="#dadada"></path></g></g></svg>