<?xml version="1.0" standalone="no"?><!DOCTYPE svg PUBLIC "-//W3C//DTD SVG 1.1//EN" "http://www.w3.org/Graphics/SVG/1.1/DTD/svg11.dtd"><svg width="128" height="128" viewBox="0 0 128 128" version="1.1" xmlns="http://www.w3.org/2000/svg" xmlns:xlink="http://www.w3.org/1999/xlink"><defs><style type="text/css"><![CDATA[
@font-face { font-family: ifont; src: url("//at.alicdn.com/t/font_1442373896_4754455.eot?#iefix") format("embedded-opentype"), url("//at.alicdn.com/t/font_1442373896_4754455.woff") format("woff"), url("//at.alicdn.com/t/font_1442373896_4754455.ttf") format("truetype"), url("//at.alicdn.com/t/font_1442373896_4754455.svg#ifont") format("svg"); }

]]></style></defs><g class="transform-group"><g transform="scale(0.125, 0.125)"><path d="M674.814304 131.753294 674.814304 131.753294c-120.446745 0-218.109728 98.302976-218.109728 219.603046s97.662983 219.603046 218.109728 219.603046 218.109728-98.302976 218.109728-219.603046S795.261049 131.753294 674.814304 131.753294L674.814304 131.753294zM265.389236 652.195873l113.108155-115.156134c-33.364986-53.887439-52.650118-117.502776-52.650118-185.683399C325.847272 157.310361 482.090978 0 674.814304 0s348.967032 157.310361 348.967032 351.35634-156.243706 351.35634-348.967032 351.35634c-77.695191 0-149.459776-25.557067-207.443172-68.77795L357.932272 745.378902l165.032948 166.142269c25.557067 25.727732 25.557067 67.455297 0 93.183029-25.557067 25.727732-66.985969 25.727732-92.543036 0l-164.520953-165.630275-146.558473 149.203779c-25.429068 25.855731-66.815304 26.111728-92.543036 0.511995s-25.941063-67.284632-0.511995-93.183029l147.070468-149.75844-154.238393-155.262383c-25.557067-25.727732-25.557067-67.455297 0-93.183029s66.985969-25.727732 92.543036 0L265.389236 652.195873z" fill="#eb4f38"></path></g></g></svg>