<?xml version="1.0" standalone="no"?><!DOCTYPE svg PUBLIC "-//W3C//DTD SVG 1.1//EN" "http://www.w3.org/Graphics/SVG/1.1/DTD/svg11.dtd"><svg width="128" height="128" viewBox="0 0 128 128" version="1.1" xmlns="http://www.w3.org/2000/svg" xmlns:xlink="http://www.w3.org/1999/xlink"><defs><style type="text/css"><![CDATA[
@font-face { font-family: ifont; src: url("//at.alicdn.com/t/font_1442373896_4754455.eot?#iefix") format("embedded-opentype"), url("//at.alicdn.com/t/font_1442373896_4754455.woff") format("woff"), url("//at.alicdn.com/t/font_1442373896_4754455.ttf") format("truetype"), url("//at.alicdn.com/t/font_1442373896_4754455.svg#ifont") format("svg"); }

]]></style></defs><g class="transform-group"><g transform="scale(0.125, 0.125)"><path d="M863.304088 382.990764 863.304088 224.060055C831.331909 255.133771 737.234811 346.585623 688.398546 394.533658c49.747008 60.57461 77.037561 136.484488 77.254501 214.866672 2.774183 192.540178-151.039995 350.884532-343.591429 353.669972C229.532697 965.844485 71.187319 812.019051 68.391646 619.478873c-2.774183-192.539154 151.062508-350.884532 343.591429-353.669972 73.808006-1.062192 146.032958 21.318538 206.293413 63.912635 48.836265-45.281299 146.488329-138.511657 179.349761-169.58435L623.607914 160.137187 623.607914 65.140603l332.037279 0 0 317.850162L863.304088 382.990764zM163.679873 609.400331c-2.211365 139.486868 109.09672 254.349919 248.583588 256.56026 139.486868 2.200108 254.349919-109.09672 256.538771-248.583588 2.211365-139.486868-109.075231-254.349919-248.562099-256.550027-1.170662-0.021489-2.341325-0.032746-3.511987-0.032746C278.217513 359.602078 164.937516 470.888673 163.679873 609.400331z" fill="#5c6dce"></path></g></g></svg>