<?xml version="1.0" standalone="no"?><!DOCTYPE svg PUBLIC "-//W3C//DTD SVG 1.1//EN" "http://www.w3.org/Graphics/SVG/1.1/DTD/svg11.dtd"><svg width="128" height="128" viewBox="0 0 128 128" version="1.1" xmlns="http://www.w3.org/2000/svg" xmlns:xlink="http://www.w3.org/1999/xlink"><defs><style type="text/css"><![CDATA[
@font-face { font-family: ifont; src: url("//at.alicdn.com/t/font_1442373896_4754455.eot?#iefix") format("embedded-opentype"), url("//at.alicdn.com/t/font_1442373896_4754455.woff") format("woff"), url("//at.alicdn.com/t/font_1442373896_4754455.ttf") format("truetype"), url("//at.alicdn.com/t/font_1442373896_4754455.svg#ifont") format("svg"); }

]]></style></defs><g class="transform-group"><g transform="scale(0.125, 0.125)"><path d="M955.348293 254.994766c-45.785714-78.439092-107.891112-140.54449-186.332539-186.327869C690.560316 22.885852 604.915252 0 512.015178 0c-92.890734 0-178.561484 22.885852-257.002911 68.666896-78.446097 45.776374-140.551495 107.881772-186.33721 186.327869C22.887008 333.445533 0.001156 419.116283 0.001156 512.000012c0 92.888398 22.892857 178.545139 68.666896 257.000576 45.783379 78.439092 107.888777 140.54449 186.334875 186.332539 78.450767 45.778709 164.114513 68.666896 257.002911 68.666896s178.561484-22.888187 257.007581-68.666896c78.441427-45.771704 140.54449-107.893447 186.325534-186.332539 45.774039-78.448432 68.657556-164.116848 68.657556-257.000576C1023.998844 419.106943 1001.112992 333.433858 955.348293 254.994766zM826.007386 693.996358c-32.443223 55.55324-76.440287 99.566649-131.993527 132.009872-55.55324 32.443223-116.21791 48.648489-182.005687 48.648489-65.771431 0-126.440771-16.205266-182.001017-48.648489-55.55324-32.445558-99.550304-76.456632-131.993527-132.009872-32.450228-55.55324-48.669505-116.220246-48.669505-181.996347 0-65.780771 16.226282-126.447777 48.669505-182.001017 32.436218-55.55324 76.444957-99.559644 131.993527-132.000532 55.55324-32.445558 116.220246-48.662499 182.001017-48.662499 65.785441 0 126.452447 16.216941 182.005687 48.662499 55.55324 32.443223 99.552639 76.447292 131.993527 132.000532 32.445558 55.55324 48.657829 116.220246 48.657829 182.001017C874.665216 577.776113 858.452944 638.443118 826.007386 693.996358zM576.011969 255.994168l-42.670754 0c-6.232256 0-11.332011 2.00581-15.341297 6.001086-3.9836 3.999945-5.98941 9.106706-5.98941 15.329621l0 234.672802-149.333629 0c-6.227586 0-11.332011 1.99647-15.334291 5.987075-3.99761 3.99761-5.996415 9.109041-5.996415 15.343632l0 42.663749c0 6.225251 1.998805 11.339016 5.996415 15.334291 4.004615 3.995275 9.118381 5.991745 15.334291 5.991745l213.346765 0c6.21591 0 11.332011-1.99647 15.320281-5.991745 3.995275-3.995275 6.008091-9.109041 6.008091-15.334291L597.352016 277.324875c0-6.218245-2.012815-11.322671-6.008091-15.329621C587.350985 257.999979 582.237219 255.994168 576.011969 255.994168z" fill="#ea8010"></path></g></g></svg>