<?xml version="1.0" standalone="no"?><!DOCTYPE svg PUBLIC "-//W3C//DTD SVG 1.1//EN" "http://www.w3.org/Graphics/SVG/1.1/DTD/svg11.dtd"><svg width="200" height="200" viewBox="0 0 200 200" version="1.1" xmlns="http://www.w3.org/2000/svg" xmlns:xlink="http://www.w3.org/1999/xlink"><defs><style type="text/css"><![CDATA[
@font-face { font-family: ifont; src: url("//at.alicdn.com/t/font_1442373896_4754455.eot?#iefix") format("embedded-opentype"), url("//at.alicdn.com/t/font_1442373896_4754455.woff") format("woff"), url("//at.alicdn.com/t/font_1442373896_4754455.ttf") format("truetype"), url("//at.alicdn.com/t/font_1442373896_4754455.svg#ifont") format("svg"); }

]]></style></defs><g class="transform-group"><g transform="scale(0.1953125, 0.1953125)"><path d="M989.568 428.288c-22.976-22.976-50.88-34.432-83.712-34.432l-137.856 0c-16.384 0-30.336-5.76-41.856-17.28-11.52-11.52-17.152-25.472-17.152-41.856L708.992 315.136c0-43.584 15.36-80.64 46.08-111.488 30.784-30.72 67.904-46.144 111.36-46.144l39.36 0c10.688 0 19.904-3.84 27.712-11.648 7.808-7.808 11.648-17.024 11.648-27.712l0-78.72c0-10.688-3.84-19.904-11.648-27.712s-17.024-11.648-27.712-11.648l-39.36 0c-42.624 0-83.328 8.256-122.112 24.896C705.6 41.536 672 64 643.648 92.288 615.36 120.64 592.96 154.176 576.32 192.96c-16.64 38.784-24.96 79.488-24.96 122.176l0 433.152c0 32.832 11.52 60.736 34.496 83.712s50.88 34.432 83.712 34.432l236.224 0c32.832 0 60.736-11.392 83.712-34.432s34.432-50.88 34.432-83.712L1023.936 511.936C1023.936 479.168 1012.544 451.328 989.568 428.288M438.144 428.288C415.168 405.312 387.264 393.856 354.496 393.856L216.576 393.856c-16.384 0-30.336-5.76-41.856-17.28-11.52-11.52-17.28-25.472-17.28-41.856L157.44 315.136c0-43.584 15.424-80.64 46.144-111.488 30.784-30.72 67.904-46.144 111.488-46.144l39.36 0c10.624 0 19.84-3.84 27.648-11.648 7.808-7.808 11.712-17.024 11.712-27.712l0-78.72c0-10.688-3.968-19.904-11.712-27.712C374.336 3.904 365.12 0.064 354.496 0.064L315.136 0.064c-42.688 0-83.392 8.256-122.176 24.896C154.176 41.536 120.64 64 92.288 92.288 64 120.64 41.536 154.176 24.96 192.96 8.32 231.68 0.064 272.448 0.064 315.136l0 433.152c0 32.832 11.392 60.736 34.432 83.712s50.88 34.432 83.712 34.432l236.288 0c32.768 0 60.672-11.392 83.648-34.432 22.976-22.976 34.432-50.88 34.432-83.712L472.576 511.936C472.576 479.168 461.184 451.328 438.144 428.288" fill="#11cd6e"></path></g></g></svg>